<?xml version="1.0" encoding="UTF-8"?>
<svg width="1583px" height="1583px" viewBox="0 0 1583 1583" version="1.1" xmlns="http://www.w3.org/2000/svg" xmlns:xlink="http://www.w3.org/1999/xlink">
    <title>Group 2 Copy</title>
    <defs>
        <linearGradient x1="80.0101374%" y1="-1.62373789%" x2="29.8696647%" y2="106.406717%" id="linearGradient-1">
            <stop stop-color="#B7AF8B" offset="0%"></stop>
            <stop stop-color="#EEDCD0" offset="51.9203453%"></stop>
            <stop stop-color="#A69E7D" offset="100%"></stop>
        </linearGradient>
        <linearGradient x1="78.7998798%" y1="-1.62373789%" x2="30.6814868%" y2="106.406717%" id="linearGradient-2">
            <stop stop-color="#B7AF8B" offset="0%"></stop>
            <stop stop-color="#EEDCD0" offset="51.9203453%"></stop>
            <stop stop-color="#A69E7D" offset="100%"></stop>
        </linearGradient>
        <radialGradient cx="50%" cy="45.8799005%" fx="50%" fy="45.8799005%" r="65.2325757%" gradientTransform="translate(0.500000,0.458799),scale(1.000000,0.979628),rotate(90.000000),translate(-0.500000,-0.458799)" id="radialGradient-3">
            <stop stop-color="#FFFFFF" stop-opacity="0" offset="0%"></stop>
            <stop stop-color="#B3AA8C" stop-opacity="0.794744318" offset="100%"></stop>
        </radialGradient>
        <path d="M854.837304,82.7271266 C883.134422,86.2228228 904.555319,89.6154767 919.099997,92.9050881 C933.644674,96.1946996 940.611342,98.0132711 940,98.3608027 L940,98.3608027 L940,659.547522 L834.138751,775.5 L940,895.627957 L940,1452.74159 C936.938099,1454.30233 928.874973,1456.38872 915.810623,1459.00076 C902.746274,1461.61279 882.421834,1464.80893 854.837304,1468.58915 L854.837304,1468.58915 L854.837304,931.740913 L757.916149,817 L682.252297,817 L682.252297,1467 C664.958338,1465.36643 648.644753,1462.70001 633.311544,1459.00076 C617.978334,1455.3015 606.207819,1452.04089 598,1449.21894 L598,1449.21894 L598,102 C608.957813,98.5981872 620.728328,95.5665499 633.311544,92.9050881 C645.894759,90.2436264 662.208344,87.2752637 682.252297,84 L682.252297,84 L682.252297,732 L753.455362,732 L854.837304,608.846032 Z M1027.19309,126.006838 C1233.34082,200.736567 1388.06671,391.327852 1432.9112,542.861377 C1383.67448,542.861377 1388.00914,542.989132 1355.2895,542.999352 L1351,543 C1325.82265,446.436074 1211.87503,306.245911 1113,273.364055 L1113,273.364055 L1113,732 L1342.40952,732 L1342.40952,818.042139 L1113,818.042139 L1113,818.042139 L1113,1279 C1200.32841,1227.57155 1298.38222,1130.8911 1351,1002 L1351,1002 L1435.608,1002 C1386.06672,1158.55148 1230.05214,1354.68194 1027.19309,1425.50617 L1027.19309,1425.50617 Z M520.170757,127.263904 L520.170757,543 L435,543 L435,543 L435,276.280139 C316.2474,319.053342 173.697442,517.463315 163,731.962592 L163,731.962592 L520.170757,731.962592 L520.170757,731.962592 L520.170757,1423.88084 C375.334148,1377.91361 185.203019,1214.59118 116.929597,1002.36954 L116.929597,1002.36954 L202,1002.36954 C247.61215,1132.48917 351.802377,1245.84361 435,1290.35292 L435,1290.35292 L435,817 L435,817 L80.6000039,817 C54.7476887,521.750835 221.454649,244.587771 520.170757,127.263904 L520.170757,127.263904 Z" id="path-4"></path>
    </defs>
    <g id="Page-1" stroke="none" stroke-width="1" fill="none" fill-rule="evenodd">
        <g id="Artboard" transform="translate(-1839.000000, -1731.000000)">
            <g id="Group-2-Copy" transform="translate(1855.000000, 1747.000000)">
                <circle id="Oval" stroke="url(#linearGradient-1)" stroke-width="30.1" stroke-linecap="round" stroke-linejoin="round" cx="775.5" cy="775.5" r="775.5"></circle>
                <g id="Combined-Shape">
                    <use fill="url(#linearGradient-2)" xlink:href="#path-4"></use>
                    <use fill="url(#radialGradient-3)" xlink:href="#path-4"></use>
                </g>
            </g>
        </g>
    </g>
</svg>